<svg width="256" height="256" viewBox="0 0 256 256" fill="none" xmlns="http://www.w3.org/2000/svg">
<rect width="256" height="256" rx="64" fill="#2196F3"/>
<g clip-path="url(#clip0_1484_8167)">
<path d="M176 83.5556H80V56.8889C80 54.3704 80.7667 52.2593 82.3 50.5556C83.8333 48.8519 85.7333 48 88 48H168C170.267 48 172.167 48.8519 173.7 50.5556C175.233 52.2593 176 54.3704 176 56.8889V83.5556ZM176 132.444C178.267 132.444 180.167 131.593 181.7 129.889C183.233 128.185 184 126.074 184 123.556C184 121.037 183.233 118.926 181.7 117.222C180.167 115.519 178.267 114.667 176 114.667C173.733 114.667 171.833 115.519 170.3 117.222C168.767 118.926 168 121.037 168 123.556C168 126.074 168.767 128.185 170.3 129.889C171.833 131.593 173.733 132.444 176 132.444ZM96 190.222H160V154.667H96V190.222ZM96 208C91.6 208 87.8333 206.259 84.7 202.778C81.5667 199.296 80 195.111 80 190.222V172.444H56C53.7333 172.444 51.8333 171.593 50.3 169.889C48.7667 168.185 48 166.074 48 163.556V119.111C48 111.556 50.3333 105.222 55 100.111C59.6667 95 65.3333 92.4444 72 92.4444H184C190.8 92.4444 196.5 95 201.1 100.111C205.7 105.222 208 111.556 208 119.111V163.556C208 166.074 207.233 168.185 205.7 169.889C204.167 171.593 202.267 172.444 200 172.444H176V190.222C176 195.111 174.433 199.296 171.3 202.778C168.167 206.259 164.4 208 160 208H96Z" fill="white"/>
</g>
<defs>
<clipPath id="clip0_1484_8167">
<rect width="160" height="160" fill="white" transform="translate(48 48)"/>
</clipPath>
</defs>
</svg>
